<?xml version="1.0" standalone="no"?>
<!DOCTYPE svg PUBLIC "-//W3C//DTD SVG 1.1//EN" "http://www.w3.org/Graphics/SVG/1.1/DTD/svg11.dtd" >
<svg xmlns="http://www.w3.org/2000/svg">
<metadata></metadata>
<defs>
<font id="medium-iconsicons" horiz-adv-x="256" >
<font-face units-per-em="512" ascent="448" descent="-64" />
<missing-glyph horiz-adv-x="500" />
<glyph unicode="&#xd;" horiz-adv-x="170" />
<glyph unicode="&#x25fc;" horiz-adv-x="500" d="M0 0z" />
<glyph unicode="&#xf100;" horiz-adv-x="460" d="M0 205q0 8 6 14t15 6h81q5 0 8 -3q4 -4 5 -6l1 -4l14 -41l43 189q3 9 12 14q3 2 8 2t8 -1q8 -3 11 -13l68 -272l28 163q5 25 21 25q7 0 11 -3t6 -6l2 -3l30 -112h62q9 0 15 -6q5 -7 5 -13t-6 -14q-5 -6 -14 -6h-61h-5h-6l-4 1h-5l-4 2l-4 3l-3 4l-3 5l-9 36l-30 -157 q-3 -12 -11 -20q-7 -7 -17 -7t-17 7q-8 8 -11 20l-54 244l-43 -176q-4 -10 -8 -13q-5 -4 -11 -4q-7 0 -11 4t-7 11l-28 110h-67q-8 0 -15 7q-6 6 -6 14v-1z" />
<glyph unicode="&#xf101;" horiz-adv-x="462" d="M0 202q0 27 8 59q15 60 59 104q47 46 104 60q32 8 60 8q27 0 59 -8q59 -15 104 -60t60 -104q8 -32 8 -59q0 -28 -8 -60q-15 -59 -60 -104q-44 -44 -104 -59q-32 -8 -59 -8q-28 0 -60 8q-60 15 -104 59q-45 46 -59 104q-8 32 -8 60zM44 202q0 -24 6 -48q14 -49 49 -84 t84 -49q24 -6 48 -6t48 6q49 14 84 49q34 34 48 84q7 28 7 48t-7 48q-14 50 -48 84t-84 48q-28 7 -48 7q-21 0 -49 -7q-49 -14 -83 -48q-35 -35 -49 -84q-6 -24 -6 -48zM130 194v16q0 5 4 9t10 4h52q6 0 10 4t4 9v53q0 6 4 10t9 4h15q6 0 10 -4t4 -10v-53q0 -5 4 -9t9 -4h53 q6 0 10 -4t4 -9v-16q0 -5 -4 -9t-10 -4h-53q-5 0 -9 -4t-4 -10v-52q0 -6 -4 -10t-10 -4h-15q-5 0 -9 4t-4 10v52q0 6 -4 10t-10 4h-52q-6 0 -10 4t-4 9z" />
<glyph unicode="&#xf102;" horiz-adv-x="481" d="M0 80v291q0 17 12 29t29 12h337q14 0 26 -12q11 -11 11 -29v-10v-69l66 -67l-66 -66v-79q0 -18 -11 -29q-12 -12 -26 -12h-337q-17 0 -29 12t-12 29zM120 216q0 -3 3 -6t5 -3h47q6 0 10 -4t4 -8v-46q0 -14 14 -14h14q2 0 6 4q3 3 3 10v46q0 3 3 8q3 4 10 4h47q7 0 10 3 t3 6v18q0 3 -3 6t-10 3h-47q-7 0 -10 4t-3 8v46q0 7 -3 11q-2 3 -6 3h-14q-14 0 -14 -14v-46q0 -4 -4 -8t-10 -4h-47q-2 0 -5 -3t-3 -6v-18z" />
<glyph unicode="&#xf103;" horiz-adv-x="465" d="M0 69v193q0 14 6 21t15 7h30v-51h-13v-128q0 -15 8 -24q9 -10 20 -10h273q0 -12 -9 -26q-8 -13 -20 -13h-282q-12 0 -20 9q-8 10 -8 22zM64 136v215q0 14 8 22q9 9 20 9h163v-47h-145v-187h245v92h46v-107q0 -13 -8 -21q-9 -9 -21 -9h-280q-14 0 -21 9q-7 8 -7 24z M290 336v46h65v63h45v-63h65v-46h-65v-60h-45v60h-65z" />
<glyph unicode="&#xf104;" horiz-adv-x="299" d="M0 164v50v1q0 5 4 9t9 4h97v96q0 6 4 10t10 4h50q5 0 10 -5q4 -4 4 -10v-95h97q6 0 10 -4t4 -9v-1v-50q0 -5 -5 -10q-4 -4 -10 -4h-96v-97q0 -6 -4 -10t-11 -4h-49h-1q-5 0 -9 3q-4 4 -4 10v98h-96q-6 0 -10 4t-4 10z" />
<glyph unicode="&#xf105;" horiz-adv-x="183" d="M0 161l123 124q4 4 10 4t10 -4l35 -36q4 -4 4 -10t-4 -10l-68 -68l69 -68q4 -3 4 -10t-4 -10l-36 -35q-4 -4 -10 -4t-10 4z" />
<glyph unicode="&#xf106;" horiz-adv-x="184" d="M0 83q0 6 4 10l70 69l-69 67q-3 5 -3 10t3 10l35 36q4 4 10 4t10 -4l124 -124l-124 -123q-4 -4 -10 -4t-10 4l-36 35q-4 3 -4 10z" />
<glyph unicode="&#xf107;" horiz-adv-x="392" d="M0 58l1 3q2 7 11 33q6 18 11 27l2 5l3 5l3 4l4 5l5 3l6 4l9 2q6 2 37 7l40 8q1 0 1.5 1t1.5 1q3 4 8 14q4 9 4 20q-4 4 -8 7q-6 5 -9 9q-1 1 -5 14v1v-1l-1 1v2q0 3 -1 9.5t-2 9.5q-1 4 -1.5 12.5t-0.5 13.5q0 3 -0.5 9.5t-0.5 9.5q0 2 0.5 6t0.5 6q0 10 4 32q3 14 10 29 q5 10 19 22q11 10 29 13q12 2 14 2h2q2 0 14 -2q17 -4 24 -9q12 -9 17 -16q9 -13 12 -22q4 -12 6 -24q3 -12 3 -25v-17v-8q0 -7 -2 -23q0 -3 -0.5 -9.5t-1.5 -8.5t-1.5 -6.5t-0.5 -6.5q-4 -13 -5 -14q-3 -4 -9 -9q-4 -3 -8 -7q0 -10 4 -19q5 -12 8 -15q1 -1 3 -1l40 -9 q31 -5 37 -7q4 -1 10 -3q1 0 2.5 -1t2.5 -2t2 -1q2 -1 5 -4l3 -3l1 -2l1 -2l2 -4l3 -5q4 -7 11 -28q4 -12 10 -32l2 -4q-1 -2 -3 -4q-1 -1 -3 -2l-2 -2l-5 -5q-2 -2 -6 -4q-2 -1 -5 -1h-5q-8 -1 -94 -1h-73h-1h-73q-85 0 -93 1h-5q-4 0 -7 2q-6 4 -7 5q-4 4 -6 7zM125 228v2 v-2zM267 228zM267 228v1v-1zM267 229v1q1 0 1 1v2z" />
<glyph unicode="&#xf108;" horiz-adv-x="461" d="M0 161q0 77 48 130q47 52 141 70l32 -42q-59 -17 -83 -35q-26 -19 -26 -46q0 -18 8 -25q11 -9 31 -17q14 -6 19 -10q13 -10 16 -14q8 -10 12 -20q5 -13 5 -28q0 -36 -27 -61q-26 -25 -68 -25q-48 0 -78 35t-30 88zM240 161q0 77 48 130q48 52 140 70l33 -42 q-56 -17 -83 -36t-27 -45q0 -17 9 -25q11 -9 31 -17q11 -5 19 -10q10 -6 16 -14q10 -12 13 -20q4 -11 4 -28q0 -36 -27 -61q-26 -25 -68 -25q-47 0 -77 35q-31 36 -31 88z" />
<glyph unicode="&#xf109;" horiz-adv-x="254" d="M0 41q0 8 3 20q3 14 5 17q12 4 27 7v204q-5 0 -27 4q-1 7 -1 21q0 12 1 18q85 5 110 5q33 0 62 -8q24 -7 42 -26q17 -19 17 -44q0 -22 -11 -39t-30 -23v-4q24 -6 41 -24q15 -17 15 -42q0 -21 -7 -35q-7 -15 -19 -25q-14 -12 -27 -17q-22 -8 -34 -10q-18 -3 -36 -3 q-70 0 -131 4zM97 78q9 -1 29 -1q33 0 48 11q16 12 16 37q0 23 -18 35t-47 12h-28v-93v-1zM97 211h27q26 0 39 10t13 34q0 22 -16 32q-17 11 -46 11q-9 0 -17 -2v-85z" />
<glyph unicode="&#xf10a;" horiz-adv-x="307" d="M0 96v96q0 24 17 41t41 17h38q4 0 10 14q6 15 9 15h77q4 0 10 -15q6 -14 10 -14h37q24 0 41 -17t17 -41v-96q0 -24 -17 -41t-41 -17h-191q-24 0 -41 17t-17 41zM87 144q0 -28 19 -47q20 -20 48 -20q27 0 47 20t20 47q0 28 -20 48t-47 20q-28 0 -48 -20q-19 -19 -19 -48z M115 144q0 15 11 28q10 11 28 11q17 0 27 -11q11 -13 11 -28q0 -14 -11 -27q-11 -12 -27 -12q-18 0 -28 12q-11 13 -11 27z" />
<glyph unicode="&#xf10b;" horiz-adv-x="323" d="M0 155q0 7 4 11l34 38q3 4 9 4t10 -4l53 -61q3 -4 9 -4q7 0 10 4l139 168q3 4 9 4t9 -4l34 -37q3 -5 3 -11q0 -5 -3 -10l-171 -204q-2 -3 -10 -7q-6 -3 -12 -3h-16q-6 0 -12 3q-8 4 -10 7l-85 96q-4 4 -4 11v-1z" />
<glyph unicode="&#xf10c;" horiz-adv-x="307" d="M0 192q0 23 5 39q11 40 40 69t69 40l39 5q24 0 40 -5q40 -11 69 -40t40 -69q5 -16 5 -39t-5 -39q-11 -40 -40 -69q-31 -31 -69 -41l-40 -5q-23 0 -39 5q-38 10 -69 41q-29 29 -40 69v-1q-5 16 -5 40zM29 192q0 -14 5 -32h-1q10 -34 32 -55q22 -22 56 -32q18 -5 32 -5 t32 5q34 10 56 32q36 36 36 87t-36 87q-37 37 -88 37q-50 0 -87 -37q-23 -23 -32 -55q-5 -18 -5 -32zM82 185q0 3 2 5l16 17q2 2 4 2q3 0 5 -2l28 -28l66 65q2 2 4 2t4 -2l15 -15q2 -2 2 -4q0 -3 -2 -5l-87 -86q-2 -2 -4 -2t-4 2l-47 47q-2 2 -2 4z" />
<glyph unicode="&#xf10d;" horiz-adv-x="402" d="M0 30v193q0 13 6 21q6 7 16 7h29v-51h-13v-128q0 -15 8 -24q9 -10 20 -10h273q0 -12 -9 -26q-8 -13 -20 -13h-282q-12 0 -20 9q-8 10 -8 22zM64 97v215q0 14 8 22q9 9 20 9h281q13 0 21 -9q8 -10 8 -24v-214q0 -13 -9 -22t-20 -9h-281q-14 0 -21 8t-7 25v-1zM110 111h246 v185h-246v-185z" />
<glyph unicode="&#xf10e;" horiz-adv-x="73" d="M0 169l37 37l36 -37l-36 -37z" />
<glyph unicode="&#xf10f;" horiz-adv-x="402" d="M0 36v268q0 18 12 34t28 16h322q14 0 27 -16t13 -34v-268q0 -18 -13 -34t-27 -16h-322q-16 0 -28 16t-12 34zM54 39h295v262h-295v-262zM87 110v50h120v-50h-120zM87 197v51h208v-51h-208z" />
<glyph unicode="&#xf110;" horiz-adv-x="394" d="M0 48v19q0 4 3 7q2 2 6 2h376q4 0 6 -2q3 -3 3 -7v-19q0 -4 -3 -7t-6 -3h-376q-3 0 -6 3t-3 7zM0 252v48h161v-49q-19 0 -29 3v2q-1 3 -2 8t-2 11h-28v-129q18 0 25 -2q2 -6 2 -12q0 -9 -1 -12h-92q1 13 6 22q9 3 21 4v129h-28l-3 -20q-9 -3 -30 -3zM210 133v19q0 4 2 6 q4 4 7 4h166q2 0 6 -4q3 -3 3 -6v-19q0 -4 -3 -7q-2 -2 -6 -2h-166q-5 0 -7 2t-2 7zM210 203v19q0 4 2 6q3 3 7 3h166q3 0 6 -3t3 -6v-19q0 -4 -3 -7q-2 -2 -6 -2h-166q-5 0 -7 2t-2 7zM210 272v19q0 4 2 6q3 3 7 3h166q3 0 6 -3t3 -6v-19q0 -4 -3 -7q-2 -2 -6 -2h-166 q-5 0 -7 2t-2 7z" />
<glyph unicode="&#xf111;" horiz-adv-x="430" d="M0 68v180l87 -70l-60 -118l81 99l60 -39l2 -3q1 -2 6 -7q1 -1 10 -7q7 -5 13 -7q5 -2 15 -2l3 -1q4 0 7 1t11 3q6 1 14 8q10 8 14 13l60 42l81 -100l-58 119l84 69v-180v-3q0 -1 -1.5 -4t-1.5 -4t-5 -8q-4 -5 -9 -8q-6 -3 -14 -3h-370h-3q-1 0 -7 2q-3 1 -9 5q-4 3 -7 9 t-3 14zM1 277v3q0 3 1 7q1 5 4 9q4 5 9 8q6 3 14 3h371h3q1 0 7 -2t9 -4t7 -10t4 -14l-184 -140l-3 -3l-8 -6q-3 -3 -13 -5l-2 -1h-2q-6 0 -13 3q-9 3 -20 12z" />
<glyph unicode="&#xf112;" horiz-adv-x="447" d="M0 159l121 124q9 12 21 0l23 -24q8 -11 0 -25l-74 -77l74 -77q12 -9 0 -21l-23 -23q-12 -12 -23 0zM284 62q-12 12 0 23l74 77l-74 77q-8 8 0 20l23 24q11 11 23 0l117 -121l-119 -124q-9 -12 -21 0z" />
<glyph unicode="&#xf113;" horiz-adv-x="357" d="M0 47v145q0 5 2 7t7 2q3 0 5 -2l48 -48l58 59q3 3 8 3q3 0 6 -3l36 -36q2 -2 2 -7t-2 -7l-58 -58l48 -49q2 -2 2 -5v-1q0 -4 -2 -6t-7 -2h-144q-4 0 -6 2q-3 3 -3 6zM185 269q0 5 2 7l58 59l-48 48l-2 6q0 4 2 6q3 3 6 3h145q3 0 6 -3t3 -6v-145q0 -3 -3 -6t-6 -3 q-3 1 -5 3l-48 47l-58 -58q-3 -3 -7 -3t-7 3l-36 35q-2 2 -2 7z" />
<glyph unicode="&#xf114;" d="M0 38v256h256v-256h-256zM38 158l2 -7h28v-16h7h6v16h8v3v7h-8v35l-14 3q-21 -26 -29 -41zM52 160v2q7 14 15 22h1q-1 -3 -1 -8v-15h-7q-2 0 -4.5 -0.5t-3.5 -0.5zM96 170q0 -29 28 -29q15 0 22 7t7 22q0 14 -7 21q-8 8 -21 8t-21 -8t-8 -21zM111 170q0 8 4 14q3 5 10 5 q6 0 9 -5q4 -6 4 -14q0 -19 -13 -19q-7 0 -10 5q-4 8 -4 14zM160 170q0 -29 29 -29q14 0 21 7t7 22q0 14 -7 21q-8 8 -21 8t-21 -8t-8 -21zM175 170q0 8 4 14q3 5 10 5t10 -5t3 -14q0 -19 -13 -19q-7 0 -10 5q-4 8 -4 14z" />
<glyph unicode="&#xf115;" d="M0 38v256h256v-256h-256zM44 158l2 -7h28v-16q2 -1 7 -1q4 0 6 1v16h9v3v4l-1 3h-8v35l-14 2q-20 -23 -29 -40zM59 160v2q7 12 15 22h1q-1 -3 -1 -8v-15h-7q-2 0 -4.5 -0.5t-3.5 -0.5zM102 170q0 -29 29 -29q14 0 21 7q8 8 8 22q0 13 -8 21q-7 7 -21 7t-21 -7 q-8 -8 -8 -21zM118 170q0 19 13 19q7 0 10 -5q3 -6 3 -14q0 -19 -13 -19q-7 0 -10 5q-3 6 -3 14zM166 184l16 2v-34q-2 0 -5.5 -0.5t-5.5 -1.5q0 -1 -0.5 -2.5l-1 -3t-0.5 -3.5h42v3v6q-7 2 -13 2v46q-13 0 -29 -4q-2 -3 -2 -10h-1z" />
<glyph unicode="&#xf116;" d="M0 38v256h256v-256h-256zM38 158l2 -7h28v-16h7h6v16h8v3v4v3h-8v35l-15 2q-19 -22 -28 -40zM53 160v2q5 8 15 22h1q0 -1 -0.5 -3.5t-0.5 -4.5v-15h-7q-2 0 -5 -1h-3zM96 170q0 -29 29 -29q14 0 21 7q8 8 8 22q0 13 -8 21q-7 7 -21 7t-21 -7q-8 -8 -8 -21zM112 170 q0 10 3 14q3 5 10 5t10 -5q3 -6 3 -14q0 -19 -13 -19q-7 0 -10 5q-3 6 -3 14zM160 146q0 -3 2 -9q8 -3 15 -3q11 0 19 6q9 7 9 14q0 12 -12 13v1q4 1 7 6q3 4 3 10q0 8 -6 11t-15 3q-12 0 -21 -3v-6q0 -4 2 -10q7 0 11 3v6q2 1 7 1q7 0 7 -7q0 -10 -18 -11q-1 -1 -1 -3 q0 -3 2 -5q19 0 19 -10q0 -8 -14 -8q-8 0 -16 2v-1z" />
<glyph unicode="&#xf117;" d="M0 38v256h256v-256h-256zM38 158l2 -7h28v-16q2 -1 7 -1q3 0 6 1v16h8v3v4v3h-8v35l-15 2q-19 -22 -28 -40zM53 160v2q5 11 15 22h1q0 -1 -0.5 -3.5t-0.5 -4.5v-15h-7q-2 0 -4.5 -0.5t-3.5 -0.5zM96 170q0 -29 29 -29q14 0 21 7q8 8 8 22q0 13 -8 21q-7 7 -21 7t-21 -7 q-8 -8 -8 -21zM112 170q0 10 3 14q3 5 10 5t10 -5q3 -6 3 -14q0 -19 -13 -19q-7 0 -10 5q-3 6 -3 14zM160 158l2 -7h28v-16q2 -1 6 -1q5 0 7 1v16h8v1l1 2q0 5 -1 7h-8v35l-14 2q-20 -23 -29 -40zM174 160v2q2 6 16 22h1q0 -1 -0.5 -3.5t-0.5 -4.5v-15h-8q-2 0 -4 -1h-3h-1z " />
<glyph unicode="&#xf118;" d="M0 38v256h256v-256h-256zM44 158l2 -7h28v-16q3 -1 8 -1q4 0 6 1v16h8v1v2q0 5 -1 7h-7v35l-15 2q-17 -20 -28 -40h-1zM59 160v2q7 12 15 22h1q-1 -3 -1 -8v-15h-7q-2 0 -4.5 -0.5t-3.5 -0.5zM102 184l16 2v-34q-2 0 -4.5 -0.5t-4 -1t-2.5 -0.5l-3 -9h43v3v6l-6 1 q-4 1 -7 1v46q-13 0 -29 -4q-3 -5 -3 -10zM154 170q0 -29 29 -29q13 0 21 8t8 21t-8 21q-7 7 -21 7t-21 -7q-8 -8 -8 -20v-1zM169 170q0 19 14 19q7 0 9 -5q4 -8 4 -14q0 -19 -13 -19q-7 0 -10 5q-4 8 -4 14z" />
<glyph unicode="&#xf119;" d="M0 38v256h256v-256h-256zM44 145q0 -6 3 -9q10 -2 14 -2q11 0 20 6t9 17q0 18 -22 18h-3h-3l1 12h12q3 0 7.5 -0.5t5.5 -0.5q1 4 1 13h-39l-3 -36q12 2 16 2q11 0 11 -9q0 -6 -4 -9q-5 -3 -10 -3t-15 2q-1 0 -1 -1zM96 170q0 -29 29 -29q14 0 21 7q8 8 8 22q0 13 -8 21 q-7 7 -21 7t-21 -7q-8 -8 -8 -21zM112 170q0 10 3 14q3 5 10 5t10 -5q3 -6 3 -14q0 -19 -13 -19q-7 0 -10 5q-3 6 -3 14zM160 170q0 -29 29 -29q14 0 21 7q8 8 8 22q0 13 -8 21q-7 7 -21 7t-21 -7q-8 -8 -8 -21zM176 170q0 10 3 14q3 5 10 5t10 -5q3 -6 3 -14q0 -19 -13 -19 q-7 0 -10 5q-3 6 -3 14z" />
<glyph unicode="&#xf11a;" d="M0 38v256h256v-256h-256zM64 163q0 -19 7 -38q6 -16 16 -16h82q10 0 16 16q7 19 7 38q0 20 -7 39q-6 16 -16 16h-82q-10 0 -16 -16q-7 -19 -7 -39zM100 163v22q0 2 2 4t4 2q1 0 3 -2t2 -4v-22q0 -2 -2 -4t-3 -2q-2 0 -4 2t-2 4zM117 124v6q0 5 3 8q4 4 8 4t8 -4 q3 -3 3 -8v-6h-22zM145 163v22q0 3 1 4q2 2 4 2t4 -2t2 -4v-22q0 -2 -2 -4t-4 -2t-4 2q-1 1 -1 4z" />
<glyph unicode="&#xf11b;" horiz-adv-x="369" d="M0 60v327q0 8 6 14t15 6h327q9 0 15 -6t6 -14v-327q0 -8 -7 -15t-14 -7h-103v145h44v60h-44v15q0 3 0.5 6t0.5 4q0 2 2 8q2 5 7 7q3 1 13 1h19v52q-2 1 -5 1q-1 0 -5 1t-6 1h-15q-14 0 -30 -2q-10 -1 -22 -8q-10 -6 -14 -17q-5 -13 -5 -29v-40h-45v-60h45v-144h-164 q-9 0 -15 6t-6 15z" />
<glyph unicode="&#xf11c;" horiz-adv-x="297" d="M0 -31v430h37v-17q2 -2 4 -3l3 -1q2 -2 5 -3.5t6 -2.5q13 -5 23 -8q23 -6 31 -7q20 -3 41 -3q38 0 70 -4q30 -4 57 -10l20 -5l-57 -93l57 -115q-2 1 -5.5 1.5t-9 1.5t-8.5 2q-15 3 -52 9q-32 5 -72 5q-22 0 -41 3q-23 3 -32 7q-2 1 -10.5 3.5t-11.5 4.5l-14 7l-4 3v-205 h-37z" />
<glyph unicode="&#xf11d;" horiz-adv-x="307" d="M0 218l154 153l153 -153l-153 -154z" />
<glyph unicode="&#xf11e;" horiz-adv-x="512" d="M0 116l1 3q0 1 3 10l5 15q6 16 9 21l2 4q2 4 2 5l1 2l2 2l4 4q1 1 3 1.5t3 0.5q2 1 8 3q1 0 2.5 0.5t4.5 1t6 0.5q12 2 16 3q12 3 30 6l2 2q4 4 7 11t3 15q-3 3 -6 5l-7 7q-2 2 -4 10l-1 1v1q0 2 -1 7t-1 7t-0.5 5t-1 7t-0.5 8v15v10q0 7 4 25q3 14 7 23t15 18q8 7 23 10 q3 1 11 1h1q8 0 11 -1l7 -2q-17 -29 -17 -75q0 -28 6 -64q1 -7 5 -13q3 -5 9 -9l8 -6q0 -12 -4 -20q-5 -10 -8 -13q-2 -2 -3 -2l-39 -8q-16 -2 -36 -7l-9 -3q-3 -1 -7 -3l-5 -5l-3 -3l-1 -2l-1 -2l-2 -4l-3 -5q-2 -3 -14 -38q-2 0 -5.5 0.5t-5.5 0.5h-10h-4h-3q-2 0 -4 1 q-1 1 -2.5 2t-2.5 1l-4 4l-2 1q-2 1 -2 2zM67 71l1 4q16 50 21 58l1 1l2 4q1 3 3 5l1 2l3 3l5 5q4 2 7 3l3 1q4 1 6 2q20 5 36 7l38 8l3 2q4 4 8 13t4 20q-3 3 -7 6q-6 5 -9 9q-5 8 -6 13v1v1v1q-1 3 -2 9.5t-1 9.5q-1 3 -1.5 12t-0.5 13q0 3 -0.5 9t-0.5 8q0 3 0.5 7t0.5 6 q2 21 4 30q3 14 10 29q5 11 19 21t28 13q10 2 14 2h1q2 0 14 -2q13 -2 27 -13q14 -10 19 -21q8 -15 10 -28q4 -22 4 -31q0 -2 0.5 -6t0.5 -7q0 -2 -0.5 -8t-0.5 -9q0 -4 -0.5 -13t-1.5 -12q0 -3 -1 -9.5t-2 -9.5v-2l-1 -2l1 1l-1 -1v-1q-1 -6 -5 -12q-2 -3 -9 -8 q-1 -1 -3 -2.5t-3 -2.5l-2 -1q0 -12 4 -20t9 -13l2 -2l38 -8q14 -2 37 -7q2 0 3.5 -0.5t3 -1.5t2.5 -1q3 -1 7 -3l5 -5l3 -3l1 -2q2 -2 3 -5l2 -4l1 -1q11 -25 21 -58l1 -4l-4 -4l-6 -6q-3 -3 -6 -5q-5 -3 -8 -3h-3q-9 -1 -92 -1h-70h-2h-70q-84 0 -92 1h-3q-3 0 -7 3 q-6 4 -7 5l-6 6zM96 250v2v-2zM187 236h1h-1zM188 235v1v-1zM327 237v2v-2zM330 216l8 6q6 4 9 9q4 6 5 13q6 36 6 64q0 46 -17 75l7 2q3 1 12 1h1q7 0 10 -1q15 -3 23 -10q11 -9 15 -18t7 -23q4 -18 4 -25v-9q0 -2 -0.5 -7.5t-0.5 -8.5t-0.5 -10t-1.5 -10q-1 -2 -1 -7 t-1 -7v-1v-1q-2 -8 -4 -10l-7 -7q-3 -2 -6 -5q0 -8 3 -15t7 -11l2 -2q18 -3 30 -6q4 -1 16 -3q3 0 6 -0.5t4.5 -1t2.5 -0.5q6 -2 8 -3q1 0 3 -0.5t3 -1.5l4 -4l2 -2l1 -2q0 -1 2 -5l2 -4q3 -5 9 -21l5 -15t3 -10l1 -3q-1 -2 -2 -3t-4 -3l-4 -4q-1 0 -2.5 -1t-2.5 -2 q-2 -1 -4 -1h-3h-4h-10q-2 0 -5.5 -0.5t-5.5 -0.5q-12 35 -14 38l-3 5l-3 6l-4 5l-5 5l-7 3l-9 3q-1 0 -37 7l-38 8q-1 0 -3 2q-4 4 -8 13t-4 20zM415 250l1 2z" />
<glyph unicode="&#xf11f;" horiz-adv-x="512" d="M0 52q1 19 8 34q12 4 27 7v187q-13 0 -26 5q-1 8 -1 21q0 10 1 14h114q1 -3 1 -13v-4q0 -10 -2 -18q-12 -4 -26 -4v-74h115v73q-11 0 -23 5q-2 10 -2 18v3q0 9 1 13h115q1 -6 1 -16q0 -6 -2 -18q-13 -4 -29 -4v-189q23 -2 32 -5q2 -7 2 -23q0 -9 -1 -12h-126q2 23 7 34 q2 1 25 6v78h-115v-78q13 -1 29 -5q2 -8 2 -17q0 -1 0.5 -3t0.5 -3q0 -9 -1 -12h-127zM348 208q2 28 8 39q12 4 47 11q20 4 61 6v-170q27 -3 45 -9q3 -9 3 -23v-10h-157q4 20 10 33q7 3 40 9v122z" />
<glyph unicode="&#xf120;" horiz-adv-x="512" d="M0 69q1 13 8 32q2 0 5.5 1t9.5 2.5t11 2.5v180q-5 0 -25 5q-2 14 -2 19q0 10 1 14h109q1 -3 1 -12v-4q0 -9 -2 -17q-11 -4 -25 -4v-71h110v70q-5 0 -22 5q-2 10 -2 17v3q0 9 1 13h109q1 -5 1 -15q0 -6 -2 -18q-13 -4 -27 -4v-181q15 -1 30 -5q2 -4 2 -22v-6q0 -2 -1 -4 v-1h-120q1 16 7 32q5 1 24 6v74h-110v-74q15 -1 28 -5q2 -8 2 -17v-6q0 -2 -0.5 -5.5t-0.5 -4.5h-120zM329 104q3 2 11 7.5t13 9.5q4 3 15 10.5t16 11.5q18 14 28 22q11 9 23 25q9 12 9 23q0 23 -29 23q-14 0 -30 -7v-31q-17 -8 -47 -10q-5 27 -5 47q0 14 1 18q43 19 87 19 q37 0 60 -12t23 -37q0 -10 -5 -23q-4 -10 -13 -21q-12 -14 -17 -19q-10 -10 -22 -18q-5 -3 -12 -8t-10 -7q-7 -5 -22 -13v-5q71 2 109 7v-6v-8q0 -21 -3 -33h-173z" />
<glyph unicode="&#xf121;" horiz-adv-x="461" d="M0 276q0 32 16 60q18 31 44 46q29 17 62 17q17 0 32 -7q19 -9 29 -16q23 -17 25 -19q4 -3 7 -6t5.5 -6t3.5 -4l7 -7l6 7q4 5 17 16q16 14 24 19q17 11 30 16q19 7 31 7q32 0 61 -17q28 -16 45 -45q16 -28 16 -61q0 -54 -41 -95l-189 -193l-190 193q-41 44 -41 95zM43 271 q0 -7 1.5 -13.5t3.5 -12t6.5 -12.5t7 -11t10 -12t9.5 -10.5t11 -11.5l11 -11l128 -130h1l128 130l8.5 8.5t9 9.5t8 8.5t8 9t6.5 9t6.5 9.5t5 9t4.5 10.5t2 10t1 10.5q0 33 -21 59t-56 28q-8 0 -17 -2.5t-17 -7.5t-16.5 -11.5t-16 -14t-14 -15t-12 -14.5t-9 -12t-6.5 -9 l-2 -3h-1l-3 3q-2 4 -6 9t-9.5 12t-12 14.5t-14 15t-16 14t-16.5 11.5t-17 7.5t-17 2.5q-35 -2 -56 -28t-21 -59zM231 -15h1h-1z" />
<glyph unicode="&#xf122;" horiz-adv-x="461" d="M0 276q0 32 16 60q18 31 44 46q29 17 62 17q17 0 32 -7q19 -9 29 -16q23 -17 25 -19q4 -3 7 -6t5.5 -6t3.5 -4q2 -2 3.5 -4t2.5 -3l6 7q4 4 18 16q16 14 24 19q17 11 30 16q19 7 31 7q32 0 61 -17q28 -16 45 -45q16 -28 16 -61q0 -54 -41 -95l-189 -193l-190 193 q-41 44 -41 95z" />
<glyph unicode="&#xf123;" horiz-adv-x="364" d="M0 46v248q0 3 2 5t5 2h350q3 0 5 -2t2 -5v-248q0 -1 -2 -5q-2 -3 -5 -3h-350q-3 0 -5 3q-2 4 -2 5zM87 104q0 -4 2 -5q4 -2 6 -2h174q3 0 5 2t2 5v14q0 2 -2 6q-1 2 -5 2h-174q-4 0 -6 -2t-2 -6v-14zM87 162q0 -4 2 -5q4 -2 6 -2h174q3 0 5 2t2 5v15q0 1 -2 5q-1 2 -5 2 h-174q-4 0 -6 -2t-2 -5v-15z" />
<glyph unicode="&#xf124;" horiz-adv-x="233" d="M0 46v15q0 3 2 5t5 2h219q1 0 5 -2q2 -1 2 -5v-15q0 -4 -2 -5q-4 -2 -5 -2h-219q-3 0 -5 2t-2 5zM0 104v131q0 3 2 5t5 2h219q1 0 5 -2q2 -1 2 -5v-131q0 -3 -2 -5q-3 -3 -5 -3h-219q-3 0 -5 3q-2 4 -2 5zM0 279v14q0 1 2 5q2 3 5 3h219q2 0 5 -3q2 -2 2 -5v-14 q0 -4 -2 -5q-4 -2 -5 -2h-219q-3 0 -5 2t-2 5z" />
<glyph unicode="&#xf125;" horiz-adv-x="248" d="M0 46v14q0 4 2 6t5 2h233q2 0 6 -2q2 -1 2 -6v-14q0 -4 -2 -5l-6 -3h-233q-2 0 -5 3q-2 2 -2 5zM0 104v131q0 1 2 5q2 3 5 3h124q2 0 5 -3t3 -5v-131q0 -4 -3 -5q-4 -2 -5 -2h-124q-3 0 -5 2t-2 5zM0 279v14q0 4 2 6t5 2h233q2 0 6 -2q2 -1 2 -6v-14q0 -3 -2 -5t-6 -2 h-233q-4 0 -5 2q-2 4 -2 5zM160 104v15q0 3 2 5t5 2h73q2 0 6 -2q2 -1 2 -5v-15q0 -4 -2 -5q-4 -2 -6 -2h-73q-3 0 -5 2t-2 5zM160 162v15q0 3 2 5t5 2h73q2 0 6 -2q2 -1 2 -5v-15q0 -3 -2 -4q-4 -2 -6 -2h-73q-3 0 -5 2t-2 4zM160 221v14q0 1 2 5q2 3 5 3h73q3 0 6 -3 q2 -2 2 -5v-14q0 -4 -2 -5q-4 -2 -6 -2h-73q-3 0 -5 2t-2 5z" />
<glyph unicode="&#xf126;" horiz-adv-x="306" d="M0 104v131q0 4 2 5q4 2 6 2h290q2 0 6 -2q2 -1 2 -5v-131q0 -4 -2 -5q-4 -2 -6 -2h-290q-2 0 -6 2q-2 1 -2 5zM36 46v14q0 4 3 5q1 0 2.5 1.5t2.5 1.5h218q3 0 6 -3q2 -2 2 -5v-14q0 -4 -2 -5q-4 -2 -6 -2h-218q-1 0 -5 2q-3 1 -3 5zM36 279v14q0 3 3 5q1 0 2.5 1.5 t2.5 1.5h218q3 0 6 -3q2 -2 2 -5v-14q0 -4 -2 -5q-4 -2 -6 -2h-218q-3 0 -5 2q-3 3 -3 5z" />
<glyph unicode="&#xf127;" horiz-adv-x="320" d="M0 104v130q0 2 2 6q1 2 5 2h196q3 0 5 -2q3 -3 3 -6v-130q0 -4 -3 -5q-4 -2 -5 -2h-196q-3 0 -5 2t-2 5zM73 46v14q0 3 2 5t4 2h234q3 0 5 -2t2 -5v-14q0 -4 -2 -5q-1 0 -2.5 -1.5t-2.5 -1.5h-234q-3 0 -4 3q-2 4 -2 5zM73 278v15q0 3 2 5t4 2h234q1 0 5 -2q2 -1 2 -5 v-15q0 -3 -2 -4q-4 -2 -5 -2h-234q-2 0 -4 2t-2 4zM233 104v14q0 4 2 5q4 2 5 2h73q1 0 5 -2q2 -1 2 -5v-14q0 -4 -2 -5q-4 -2 -5 -2h-73q-1 0 -5 2q-2 1 -2 5zM233 161v15q0 4 2 6q3 3 5 3h73q2 0 5 -3q2 -2 2 -6v-15q0 -3 -2 -5t-5 -2h-73q-3 0 -5 2t-2 5zM233 220v14 q0 4 2 6t5 2h73q3 0 5 -2t2 -6v-14q0 -4 -2 -5q-4 -2 -5 -2h-73q-3 0 -5 2t-2 5z" />
<glyph unicode="&#xf128;" horiz-adv-x="462" d="M0 202q0 27 8 59q17 61 60 104q46 46 103 60q32 8 60 8t60 -8q57 -14 103 -60q45 -45 60 -104q8 -32 8 -59q0 -28 -8 -60q-14 -57 -60 -104q-44 -44 -103 -59q-32 -8 -60 -8q-27 0 -59 8q-58 14 -104 59q-45 45 -60 104q-8 32 -8 60zM175 203l26 3l-18 -120q0 -8 5 -18 q6 -13 12 -17q13 0 31 3q19 3 28 7q5 10 7 17q3 10 3 18l-27 -3q-1 1 -1 3v4l17 144q-18 4 -24 4q-30 0 -49 -11q-4 -4 -7 -15q-3 -12 -3 -19zM203 319q0 -35 34 -35q14 0 23 9t9 26q0 16 -9 25q-8 8 -23 8t-24 -9q-10 -10 -10 -24z" />
<glyph unicode="&#xf129;" horiz-adv-x="512" d="M0 231q0 6 4 10l4 5q2 4 8 10q1 1 8 7.5t12 11.5q14 13 30 27q11 9 38 27q23 15 46 26q22 11 51 18q27 7 55 7q37 0 71 -11l-43 -44q-17 4 -36 4q-23 0 -50 -8q-24 -7 -46 -19q-21 -11 -40 -26q-30 -23 -31 -24q-4 -3 -7.5 -6.5t-7.5 -8t-6 -6.5q13 -15 30 -29 q20 -16 42 -30l-35 -35q-4 3 -12 9.5t-12 9.5q-16 12 -22 17q-3 3 -8.5 8t-8.5 8q-4 3 -8 9l-5 5l-9 9l-4 4l-4 6q-4 4 -4 9zM73 79q0 11 7 18l299 300q7 7 17 7q11 0 18 -7t7 -18t-7 -18l-299 -300q-7 -7 -17 -7q-11 0 -18 7t-7 18zM174 97l39 40q17 -4 34 -4q24 0 53 8 t51 19q26 13 46 25q23 14 37 25q15 12 23 20q-8 9 -36 30q-25 19 -52 33l36 37q11 -7 33 -23q10 -7 26 -21q7 -6 21 -20l9 -9l4 -5q1 -1 3 -3.5t3 -3.5l4 -5q4 -4 4 -10q0 -5 -4 -9l-4 -6q-1 -1 -3.5 -4t-4.5 -5l-20 -20q-8 -8 -30 -26q-18 -14 -38 -28q-20 -13 -45 -25 q-21 -10 -52 -18q-30 -8 -55 -8q-36 0 -82 16zM177 230q0 28 21 48q22 20 49 20h10l-79 -79q-1 5 -1 11zM237 161l79 80q1 -5 1 -11q0 -29 -20 -49q-21 -21 -50 -21q-6 0 -10 1z" />
<glyph unicode="&#xf12a;" horiz-adv-x="92" d="M0 191q0 5 3 19t6 17q17 11 49 11q10 0 23 -3l-16 -155q0 -5 1 -7l26 3q0 -7 -3 -19q-3 -10 -7 -19q-7 -4 -28 -7q-24 -4 -30 -4q-4 4 -11 18q-6 12 -6 20l19 128zM28 315q0 14 9 25q9 10 24 10q13 0 23 -10q8 -8 8 -25q0 -19 -8 -28q-9 -10 -23 -10q-33 0 -33 38z" />
<glyph unicode="&#xf12b;" horiz-adv-x="415" d="M0 158q0 22 9 40h1v1l1 1q6 12 14 20l78 78h1v1q17 15 35 21q-23 -26 -29 -58q-2 -12 -2 -20q0 -2 0.5 -5t0.5 -4l-49 -49q-8 -8 -9 -16q-1 -3 -1 -10q0 -8 1 -12q3 -8 9 -14l32 -32q10 -10 26 -10t26 10l30 31l19 19l29 29q5 5 7 9q3 7 3 17q0 8 -1 11l-1 1l-1 4l-1 1 l-2 3v1l-1 1q-1 2 -3 4l-12 12q0 3 1 4l2 3l28 28l2 2l14 -14l4 -4l1 -1q1 -1 1 -2l1 -1l1 -1l1 -2q0 -1 1 -1l1 -2l1 -1v-1l3 -4v-1q1 -2 3.5 -8t3.5 -9t1 -6q2 -10 2 -17q0 -11 -1 -16q-4 -26 -24 -46l-16 -16l-24 -24l-38 -39q-25 -25 -61 -25t-61 25l-32 33 q-16 16 -22 40q-3 12 -3 21zM132 243q0 3 2 15q4 26 24 46l16 17l24 24l38 38q25 25 61 25t61 -25l32 -32q16 -16 22 -40q3 -12 3 -21q0 -22 -9 -40h-1v-1v-1q-4 -7 -15 -20l-79 -78v-1q-19 -17 -35 -21q23 24 29 58q1 6 1 20v9l49 48q7 8 8 16q2 6 2 11q0 3 -2 11 q-4 10 -8 15l-32 32q-10 10 -26 10t-26 -10l-30 -31l-20 -19l-28 -29q-3 -3 -7 -10q-4 -12 -4 -16q0 -5 2 -11v-1l2 -4l1 -1l1 -4h1v-1l4 -4l12 -12q0 -3 -1 -4l-2 -3l-28 -28l-3 -2l-13 13l-5 5v1l-1 1q-2 2 -2 3l-1 1l-3 4v1l-3 5q-1 2 -7 17q-1 3 -1 7q-3 9 -3 17z" />
<glyph unicode="&#xf12c;" horiz-adv-x="507" d="M0 38v53h15q6 0 12 6q5 5 5 11v248q0 6 -5 11q-6 6 -12 6h-15v58h189l63 -229h1l64 229h190v-58h-21q-5 0 -11 -6q-5 -5 -5 -11v-247q0 -6 5 -11q6 -6 11 -6h21v-54h-181v54h37v258h-2l-90 -312h-68l-88 312h-3v-259h38v-53h-150z" />
<glyph unicode="&#xf12d;" d="M0 38v256h256v-256h-256zM57 115h42v15h-10v72l25 -87h19l25 87v-72h-10v-15h51v15h-7q-1 0 -3 2q-1 1 -1 3v68q0 2 1 3q2 2 3 2h7v16h-53l-18 -64l-18 64h-53v-16h5q1 0 3 -2q1 -1 1 -3v-68q0 -3 -1 -4t-3 -1h-5v-15z" />
<glyph unicode="&#xf12e;" horiz-adv-x="410" d="M0 173q0 22 16 38t38 16t38 -16t16 -38t-16 -38t-38 -16t-38 16t-16 38zM151 173q0 22 16 38t38 16t38 -16t16 -38t-16 -38t-38 -16t-38 16t-16 38zM301 173q0 20 16 38q15 16 39 16q22 0 38 -16t16 -38t-16 -38t-38 -16q-23 0 -39 16t-16 38z" />
<glyph unicode="&#xf12f;" horiz-adv-x="484" d="M0 25v281q0 16 11 29q10 12 25 12h203v-50h-191v-259h315v137h48v-150q0 -16 -11 -29q-10 -12 -26 -12h-338q-14 0 -25 12q-11 13 -11 29zM93 95v51h112v-51h-112zM93 186v55h205v-55h-205zM289 297v52h73v72h48v-72h74v-52h-74v-73h-48v73h-73z" />
<glyph unicode="&#xf130;" horiz-adv-x="307" d="M0 59v232q0 8 6 14t15 6h265q8 0 14 -6q7 -7 7 -14v-233q0 -7 -7 -14q-5 -5 -14 -5h-144l-56 -55l-11 -8l-1 2q-1 1 -4 3q-1 1 -1 3v54h-52q-7 0 -12 7t-5 14zM34 83q0 -4 3 -7t7 -3h42v-21q0 -3 7 -7l10 7l21 21h138q4 0 7 3q4 4 4 7v183q0 5 -3 8t-8 3h-217q-3 0 -7 -4 t-4 -7v-183zM86 158v35h51v50h33v-50h51v-35h-51v-51h-33v51h-51z" />
<glyph unicode="&#xf131;" horiz-adv-x="415" d="M0 80v287q0 19 11 30q12 12 28 12h337q15 0 27 -12t12 -30v-287q0 -17 -12 -29t-27 -12h-159l-113 -111q-3 -3 -5 -3h-1q-3 0 -6 3q-2 2 -2 6v105h-51q-16 0 -28 12q-11 11 -11 29z" />
<glyph unicode="&#xf132;" horiz-adv-x="462" d="M0 202q0 28 8 60q15 59 59 103q45 45 104 60q32 8 60 8q27 0 59 -8q59 -15 104 -60q46 -46 60 -103q8 -32 8 -60t-8 -60q-14 -57 -60 -104q-44 -44 -104 -59q-32 -8 -59 -8q-28 0 -60 8q-58 14 -104 59q-45 46 -59 104q-8 32 -8 60zM153 181l74 -69q0 -3 1 -3q1 -1 2 -1 q0 1 1 1q2 0 5 3l69 69q2 0 3 1t1 3v1q0 4 -4 4h-5h-46v97q0 3 -1 5l-3 3l-1 1h-36q-4 0 -7 -3q-2 -2 -2 -6v-97h-46h-5v-4v-5z" />
<glyph unicode="&#xf133;" horiz-adv-x="351" d="M0 83v27q0 4 2 6t6 2h160q3 0 5 -2q3 -3 3 -6v-27q0 -3 -3 -6t-5 -3h-160q-2 0 -5 3t-3 6zM0 155v29q0 3 2 5q3 3 6 3h189q3 0 6 -3q2 -2 2 -5v-29q0 -3 -2 -5q-3 -3 -6 -3h-189q-2 0 -5 3t-3 5zM0 229v22q0 3 3 8t5 5h248q3 0 5 -2q3 -3 3 -6v-27q0 -3 -3 -6 q-2 -2 -5 -2h-248q-3 0 -5 2q-3 3 -3 6zM220 118h44v52q0 7 6 7h32q3 0 4 -1t1 -5v-53h44l-65 -73z" />
<glyph unicode="&#xf134;" horiz-adv-x="431" d="M0 94v277q0 6 4 10q5 5 10 5q48 2 100 -11q12 -3 34 -13q18 -8 29 -18q16 -14 22 -20t16 -20q0 1 1.5 2.5t3.5 4t4 4.5t5.5 6t4.5 6q2 3 10 11q9 9 13 12l15 10q3 2 6 3.5t6.5 3t5.5 2.5q1 1 20 6q60 14 107 11q5 0 10 -5q4 -4 4 -10v-277q0 -7 -3 -10q-2 -2 -8 -2 q-72 0 -107 -5q-23 -3 -38 -9q-16 -6 -29 -15q-15 -10 -18 -11q-8 -4 -13 -4q-6 0 -12 4q-1 0 -3 1.5t-5.5 3t-6.5 3.5l-20 10q-14 7 -24 10q-8 3 -33 7q-3 1 -11 2t-11 1q-7 1 -22 1q-5 0 -10.5 0.5t-6.5 0.5h-18l-14 -1q-7 0 -12 4q-6 5 -6 9zM43 135q0 -4 3 -7t6 -3 q29 3 62 -1q5 -1 24 -7q4 -1 9 -3t11.5 -5t10.5 -5q5 -2 10 -4.5l8 -4t4 -1.5v178q-46 49 -74 55q-34 8 -65 8q-3 0 -6 -3t-3 -7v-190zM233 93q3 1 33 15q33 15 44 16q35 4 68 1q5 0 8 3t3 7v190q0 4 -4 7q-5 3 -9 3h-16v-94l-30 25l-33 -25v80q-14 -6 -32 -19 q-21 -16 -32 -28v-181z" />
<glyph unicode="&#xf135;" horiz-adv-x="282" d="M0 38v334q0 16 10 26t26 10h210q16 0 26 -10t10 -26v-334l-140 108z" />
<glyph unicode="&#xf136;" d="M0 83q0 6 4 10l69 69l-68 68q-4 4 -4 10t4 10l35 35q3 5 10 5t10 -5l68 -68l68 68q5 5 10 5q7 0 10 -5l35 -35q4 -4 4 -10t-4 -10l-68 -68l69 -69q4 -4 4 -10t-4 -9l-35 -35q-5 -5 -11 -5q-5 0 -10 5l-68 68l-68 -69q-6 -4 -10 -4q-5 0 -11 4l-35 35q-4 4 -4 10z" />
<glyph unicode="&#xf137;" horiz-adv-x="512" d="M0 149v261q0 19 11 30q13 13 28 13h334v-34h-339v-277h402v214h34v-207q0 -19 -11 -30q-12 -12 -28 -12h-392q-16 0 -28 12q-11 11 -11 30zM49 162l38 59l35 -14l49 62l45 -24l108 118l91 -128v-73h-366zM70 328q0 15 10 25t25 10q14 0 24 -10q11 -11 11 -25 q0 -13 -11 -24t-24 -11q-14 0 -25 11q-10 10 -10 24zM394 418v35h41v41h35v-41h42v-35h-42v-42h-35v42h-41z" />
<glyph unicode="&#xf138;" horiz-adv-x="364" d="M0 252q0 18 5 40q10 36 40 68q29 27 68 38q22 5 38 5q17 0 39 -5q38 -10 66 -38q26 -26 36 -58q8 -21 8 -49v-16q-3 -34 -21 -62l75 -76q10 -9 10 -25q0 -15 -10 -25t-25 -10t-26 10l-76 76q-34 -22 -75 -22q-12 0 -18 1q-52 6 -89 43q-30 30 -40 67q-5 16 -5 38zM53 252 q0 -40 30 -68q29 -29 68 -29q38 0 69 29q27 28 27 68q0 41 -27 71q-21 20 -44 25q-12 3 -25 3t-25 -3q-24 -6 -43 -25q-30 -30 -30 -71z" />
<glyph unicode="&#xf139;" horiz-adv-x="368" d="M0 221q0 15 1 23l50 16q2 10 12 28l-25 46l9.5 9.5t6.5 7.5q11 11 17 16l47 -25q12 8 28 12l15 50q16 2 23 2l23 -2l16 -50q16 -4 28 -12l46 25q3 -3 9 -8t9 -8q1 -1 15 -17l-25 -46q9 -15 12 -28l50 -16q1 -8 1 -23t-1 -23l-50 -15q-2 -11 -11 -28l24 -46 q-13 -17 -15 -18q-7 -7 -18 -15l-46 25q-21 -10 -28 -12l-16 -50q-16 -2 -23 -2l-23 2l-15 50q-12 3 -29 12l-46 -25q-10 8 -17 15q-3 3 -15 18l24 46q-8 16 -12 28l-50 15q-1 8 -1 23zM86 319l1 1v-1h-1zM100 221q0 -34 25 -59t59 -25q35 0 60 25t25 59q0 35 -25 60t-60 25 q-34 0 -59 -25t-25 -60z" />
<glyph unicode="&#xf13a;" horiz-adv-x="410" d="M0 65v228q0 12 8 20q7 7 18 7h87q6 0 8 -1q4 -2 5 -6q2 -6 2 -7v-8v-12q0 -3 -4 -7t-11 -4h-67v-190h303v74q0 10 5 13q3 2 18 2h6q4 0 6 -1l4 -2q1 -1 3 -5q1 -2 1 -7v-94q0 -12 -7 -19q-8 -8 -21 -8h-337q-11 0 -19 8t-8 19zM121 147q0 25 5 41q5 18 15 32q6 9 22 25 q11 11 25 19q9 5 27 13q14 6 25 9q16 4 22 5q12 2 14 2h6v63l128 -96l-128 -101v61q-13 0 -39 -4q-19 -3 -22 -3q-20 -3 -40 -11q-18 -7 -29 -17q-10 -9 -18 -18q-10 -12 -11 -14z" />
<glyph unicode="&#xf13b;" horiz-adv-x="391" d="M0 81q0 5 2 7l59 59l-48 48q-2 2 -2 6h-1h1q0 4 2 6q3 3 6 3h145q3 0 6 -3q2 -2 2 -6v-145q0 -4 -2 -6q-3 -3 -6 -3h-1q-4 2 -5 3l-48 47l-58 -59q-2 -2 -7 -2t-7 2l-36 36q-2 2 -2 7zM219 267v145q0 3 3 6q2 2 6 2q3 0 5 -2l48 -47l59 58q3 3 6 3q4 0 7 -3l36 -36 q2 -2 2 -7t-2 -7l-58 -58l48 -49q2 -2 2 -5q0 -4 -2 -6q-3 -3 -7 -3h-144q-3 0 -6 3t-3 6z" />
<glyph unicode="&#xf13c;" horiz-adv-x="462" d="M0 202q0 28 8 60q15 59 59 103q45 45 104 60q32 8 60 8q27 0 59 -8q59 -15 104 -60q46 -46 60 -103q8 -32 8 -60t-8 -60q-14 -57 -60 -104q-44 -44 -104 -59q-32 -8 -59 -8q-28 0 -60 8q-58 14 -104 59q-45 46 -59 104q-8 32 -8 60zM125 189q0 -5 2 -7l54 -58q3 -2 7 -4 q6 -2 7 -2h11q1 0 7 2q4 2 7 4l110 124q2 2 2 6q0 5 -2 7l-21 22q-3 3 -7 3q-3 0 -6 -3l-89 -102q-2 -2 -6 -2t-6 2l-35 37q-3 3 -6 3t-6 -3l-21 -22q-2 -2 -2 -7z" />
<glyph unicode="&#xf13d;" horiz-adv-x="374" d="M0 38v34q0 6 5 11t11 5h49q6 0 11 -5t5 -11v-34h-81zM97 38v132q0 7 5 12t12 5h49q6 0 11 -5t5 -12v-132h-82zM195 38v205q0 8 5 13t11 5h48q7 0 12 -5t5 -13v-205h-81zM293 38v348q0 8 4 13t12 5h49q7 0 11 -5q5 -7 5 -13v-347h-81v-1z" />
<glyph unicode="&#xf13e;" horiz-adv-x="318" d="M0 -28q0 15 11 30l98 122l5 103h-9q-10 0 -17 7t-7 17q0 9 7 16t17 7h109q10 0 17 -7q6 -6 6 -16q0 -9 -6 -17q-6 -7 -17 -7h-8l4 -103l96 -122q12 -16 12 -30q0 -5 -4 -13q-9 -18 -39 -18h-232q-31 0 -40 18q-3 6 -3 13zM86 400q0 18 12 30t30 12t30 -12q13 -13 13 -30 q0 -16 -13 -29q-12 -12 -30 -12t-30 12t-12 29zM148 327q0 13 9 22t22 9t22 -9q10 -10 10 -22q0 -11 -10 -21q-9 -9 -22 -9t-22 9t-9 21z" />
<glyph unicode="&#xf13f;" horiz-adv-x="438" d="M0 80q7 -1 22 -1q62 0 111 40q-30 0 -52 18q-23 18 -32 47q14 -2 17 -2q12 0 24 3q-32 6 -52 32t-20 59v2q21 -12 40 -12q-20 15 -29 33q-10 20 -10 44q0 26 12 47q32 -43 82 -69q47 -25 103 -28q-2 12 -2 21q0 38 26 66q26 27 63 27q18 0 36 -8q19 -9 30 -21q31 6 57 22 q-4 -13 -16 -29q-10 -12 -24 -22q26 3 52 15q-18 -28 -45 -48v-13q0 -38 -10 -74t-32 -72q-19 -31 -52 -61q-27 -24 -72 -42q-41 -16 -89 -16q-75 0 -138 42z" />
<glyph unicode="&#xf140;" horiz-adv-x="462" d="M0 202q0 28 8 60q15 59 59 103q45 45 104 60q32 8 60 8q27 0 59 -8q59 -15 104 -60q46 -46 60 -103q8 -32 8 -60t-8 -60q-14 -57 -60 -104q-44 -44 -104 -59q-32 -8 -59 -8q-28 0 -60 8q-58 14 -104 59q-45 46 -59 104q-8 32 -8 60zM128 195q0 -5 6 -9q8 -6 9 -6h55 q4 0 9 -3t5 -10v-50q0 -15 13 -15h14q4 0 10 4q4 3 4 11v50q0 13 14 13h50q5 0 10 5q4 4 4 10v13q0 14 -14 14h-50q-7 0 -10 5q-4 6 -4 9v54q0 5 -5 9q-7 5 -9 5h-14q-6 0 -9 -4q-4 -6 -4 -10v-54q0 -4 -5 -9t-9 -5h-55q-6 0 -10 -4q-5 -5 -5 -10v-13z" />
<glyph unicode="&#xf141;" horiz-adv-x="512" d="M0 -64v512l512 -512h-512z" />
</font>
</defs>
</svg>
